<?xml version="1.0" encoding="UTF-8"?>
<svg id="a" xmlns="http://www.w3.org/2000/svg" version="1.1" viewBox="0 0 728.25 497.54">
  <!-- Generator: Adobe Illustrator 30.0.0, SVG Export Plug-In . SVG Version: 2.1.1 Build 123)  -->
  <defs>
    <style>
      .st0 {
        fill: #e79f9c;
      }

      .st1 {
        fill: #fff;
      }
    </style>
  </defs>
  <path class="st1" d="M396.88,28.53c11.02-1.41,19.47,4.17,23.01,14.46l.2,97.8c3.08,11.65,15.44,11.42,21.2,1.15,9.74-17.37,15.26-41.03,26.02-57.98,12.49-19.66,43.81-6.76,36.57,15.57-6.31,19.46-23.14,40.81-30.63,60.37-2.55,6.67-2.84,7.16-.32,14.03,6.53,17.81,19,38.11,27.03,55.97,2.46,5.46,8.32,15.97,7.74,21.37-1.96,18.27-26.36,23.2-37.01,8.9-12.3-16.53-18.04-49.57-29.39-67.61-5.75-9.14-17.3-8.87-20.96,1.42-1.89,18.46,1.73,39.65-.23,57.77-2.42,22.37-37.93,22.76-40.04-.96l.04-206.04c.95-8.31,8.63-15.2,16.76-16.24v.02Z"/>
  <path class="st1" d="M578.86,279.51c9.02-1.52,31.95-.9,41.63-.11,98.31,7.97,105.39,152.79,13.39,178.13-13.28,3.66-42.91,5.91-56.21,3.69-4.61-.77-10.38-6.15-11.11-10.89l-.45-156.56c.53-6.77,6.1-13.14,12.74-14.26h.01ZM610.83,320.48c-2.36.69-4.8,4.79-4.73,7.27,2.39,27.14-3.11,59.55,0,86.04,1.19,10.13,11.81,7.8,19.03,5.99,43.05-10.81,44.71-88.15,1.2-98.22-4.31-1-11.26-2.32-15.5-1.08h0Z"/>
  <path class="st1" d="M326.48,255.91c-11.63-11.31.72-36.79-10.45-43.05-4.3-2.41-27.7-2.45-32.18-.36-11.78,5.49-.42,29.54-9.76,41.24-10.97,13.75-33,7.11-35.73-9.21-1.51-9.01-.58-27-.28-36.8,1.19-39.24,6.74-134.7,64.42-130.33,52.12,3.96,57.41,86.49,58.67,125.33.34,10.59,1.45,33.17-.48,42.6-3.07,14.92-23.18,21.3-34.2,10.58h0ZM295.86,120.52c-8.88,2.3-13.5,27.28-14.61,35.38-.7,5.16-2.39,12.27,1.42,16.31s29.88,4.22,33.89,0c4.81-5.06,1.43-18.5.06-24.96-2.19-10.3-6.52-30.42-20.76-26.74h0Z"/>
  <path class="st1" d="M340.91,282.56c88.72-9.02,94.47,163.1,23.2,183.2-99.79,28.14-110.25-174.34-23.2-183.2ZM343.85,323.51c-8.38,1.44-13.6,9.13-16.5,16.5-7.35,18.68-8.63,67.93,7.24,82.28,6.76,6.12,16.08,7.33,23.55,1.5,17.74-13.85,16.91-63.47,9.75-82.8-3.81-10.29-11.94-19.56-24.04-17.48h0Z"/>
  <path class="st1" d="M524.89,280.52c10.55-1.3,20.56,4.88,23.17,15.31-4.09,50.96,22.46,179.49-63.42,173.42-79.09-5.58-51.92-121.5-56.07-173.04,5.08-21.09,37.69-19.23,39.6,2.52,2.91,33.11-2.94,70.7.09,103.91,1.08,11.9,6.43,27.14,21.06,26.4,13.44-.68,17.66-16.27,18.68-27.4,3.1-33.79-2.25-71.44.37-105.63,1.76-8.08,8.22-14.46,16.53-15.49h-.01Z"/>
  <path class="st1" d="M563.91,76.56c13.78-.38,36.6-2.08,49.46-.05,22.99,3.63,21.98,37.2-.76,39.76-12.83,1.44-34.11-2.62-45.55,1.45-10.62,3.78-10.68,24.8-.01,28.1,8.44,2.61,27.01-.77,37.29.71,17.81,2.55,22.95,25.94,8.7,36.18-12.58,9.04-46.98-3.12-52.18,9.82-4.21,10.45-.08,23.65,12.75,23.74,14.22.1,33.81-3.95,47.49.51,21.36,6.97,17.3,37.58-7.45,39.53-25.4,1.99-53.36-1.56-79.04-.04-6-.61-10.79-4.49-12.83-10.17l-.43-156.09c.8-5.13,6.45-11.49,11.49-12.51,6.78-1.38,22.95-.71,31.07-.93h0Z"/>
  <path class="st1" d="M155.91,64.56c26.14-2.55,61.46,9.2,69.51,36.91,4.87,16.76-5.02,33.25-23.72,30.71-13.08-1.78-13.1-15.95-22.11-22.88-10.43-8.02-25.07-7.2-35.39.56-34.29,25.78-24.95,119.31,24.73,104.73,12.2-3.58,10.87-8.76,16.95-17.05,14.48-19.72,44.73-2.76,35.42,23.42-10.39,29.19-48.95,38.75-76.39,33.02-90.59-18.91-80.33-180.5,11-189.41h0Z"/>
  <path class="st1" d="M97.89,273.55c26.79-3.05,60.31,8.8,71.4,35.04,6.31,14.94,2.05,32.54-15.96,34.45-23.09,2.45-17.18-27.62-42.72-29.75-50.79-4.24-52.62,115.9,1,110.97,22.56-2.08,17.98-33.26,43.95-25.92,18.65,5.27,17.15,26.53,7.99,39.87-16.59,24.17-51.63,29.13-78.19,21.33-83.21-24.44-67.84-176.84,12.54-185.98h-.01Z"/>
  <path class="st1" d="M232.44,423.95c4.11,4.5,24.01,1.44,31.09,2.4,21.66,2.95,20.59,37.97-1.87,39.95-12.78,1.13-44.7,1.54-56.95-.13-6.56-.89-13.14-5.98-14.35-12.65-.75-4.14-1.06-13.02-1.27-17.73-2.2-49.42,1.73-100.46.04-150.04,3.31-23.09,36.5-23.72,40.92-.91,3.07,42.49-3.79,90.08.03,131.96.21,2.33.78,5.39,2.37,7.13v.02Z"/>
  <path class="st0" d="M611.55,263.55c-4.59,0-9.09.33-13.52.91-15.96-53.87-65.8-93.18-124.85-93.18-53.73,0-99.85,32.55-119.75,79-11.74-4.67-24.54-7.27-37.95-7.27-41.32,0-76.93,24.4-93.24,59.58-10.81-5.09-22.88-7.94-35.62-7.94-35.72,0-66.2,22.37-78.25,53.85-8.01-3.68-16.89-5.78-26.29-5.78-34.89,0-63.18,28.29-63.18,63.18s28.29,63.18,63.18,63.18h529.47c56.75,0,102.76-46.01,102.76-102.76s-46.01-102.76-102.76-102.76h0Z"/>
  <rect class="st1" x="403.48" y="458.85" width="26.16" height="16.74"/>
  <path d="M350.12,49.77c2.5-32.13,23.49-52.19,56.54-49.54,30.02,2.41,45.26,29.99,42.47,58.03,5.75-2.48,10.75-6.68,16.72-8.77,16.48-5.78,32.86-3.42,47.6,5.59,0,0,107-17.66,131.17,6.19,22.03,21.74,18.61,56-5.42,74.63,14.32,17.24,14.34,40.6,2.07,58.89,22.54,13.39,30.08,42.01,14.88,63.98,95.79,37.54,95.29,176.13,3.66,219.68-23.77,11.3-59.05,14.75-85.07,11.71-11.07-1.29-19.97-7.73-27.97-14.82-30.53,28.88-82.69,29.48-114.65,2.44-5.83-4.94-10.36-11.37-15.97-16.51-21.76,33.84-71.55,44.93-107.06,26.54-5.41-2.8-11.47-10.54-16.91-6.98-9.09,5.95-12.6,12.81-25.66,14.33-14.31,1.67-51.48,1.67-65.78,0-12.11-1.41-26.29-10.18-32.17-20.96-48.22,32.55-114.98,19.55-147.07-28.8-38.94-58.66-24.5-153.78,39.61-188.65,6.49-3.53,13.35-5.85,20-8.98-45.16-54.88-36.37-155.37,24.89-195.13,43.58-28.28,105.68-21.78,137.66,20.63.88.22,10.16-8.42,12.14-9.83,29.14-20.9,66.54-17.42,94.33,3.83.32-5.73-.44-11.81,0-17.5h-.01ZM396.88,28.53c-8.13,1.04-15.81,7.93-16.76,16.24l-.04,206.04c2.11,23.72,37.62,23.33,40.04.96,1.96-18.12-1.66-39.31.23-57.77,3.66-10.29,15.21-10.56,20.96-1.42,11.35,18.04,17.09,51.08,29.39,67.61,10.65,14.3,35.05,9.37,37.01-8.9.58-5.41-5.28-15.92-7.74-21.37-8.04-17.85-20.51-38.16-27.03-55.97-2.52-6.86-2.23-7.36.32-14.03,7.49-19.56,24.32-40.91,30.63-60.37,7.24-22.33-24.08-35.24-36.57-15.57-10.77,16.95-16.28,40.61-26.02,57.98-5.76,10.27-18.12,10.5-21.2-1.15l-.2-97.8c-3.55-10.3-12-15.88-23.01-14.46v-.02ZM155.91,64.56c-91.33,8.91-101.59,170.5-11,189.41,27.45,5.73,66-3.83,76.39-33.02,9.32-26.18-20.93-43.14-35.42-23.42-6.09,8.29-4.75,13.47-16.95,17.05-49.68,14.58-59.02-78.95-24.73-104.73,10.32-7.76,24.96-8.58,35.39-.56,9.01,6.93,9.03,21.1,22.11,22.88,18.7,2.55,28.58-13.95,23.72-30.71-8.05-27.71-43.37-39.46-69.51-36.91h0ZM563.91,76.56c-8.12.22-24.28-.45-31.07.93-5.04,1.03-10.69,7.38-11.49,12.51l.43,156.09c2.04,5.68,6.83,9.56,12.83,10.17,25.68-1.53,53.64,2.03,79.04.04,24.75-1.94,28.81-32.56,7.45-39.53-13.68-4.46-33.27-.41-47.49-.51-12.83-.09-16.96-13.29-12.75-23.74,5.21-12.94,39.6-.78,52.18-9.82,14.25-10.24,9.11-33.62-8.7-36.18-10.28-1.47-28.86,1.9-37.29-.71-10.67-3.3-10.61-24.31.01-28.1,11.43-4.08,32.72-.01,45.55-1.45,22.74-2.56,23.75-36.13.76-39.76-12.87-2.03-35.68-.32-49.46.05h0ZM326.48,255.91c11.01,10.71,31.13,4.33,34.2-10.58,1.94-9.43.83-32.01.48-42.6-1.26-38.84-6.55-121.37-58.67-125.33-57.67-4.38-63.22,91.09-64.42,130.33-.3,9.8-1.23,27.8.28,36.8,2.73,16.32,24.76,22.96,35.73,9.21,9.34-11.7-2.03-35.75,9.76-41.24,4.49-2.09,27.88-2.06,32.18.36,11.16,6.26-1.18,31.75,10.45,43.05h0ZM232.44,423.95c-1.6-1.74-2.16-4.8-2.37-7.13-3.82-41.88,3.04-89.48-.03-131.96-4.42-22.81-37.61-22.18-40.92.91,1.69,49.59-2.24,100.63-.04,150.04.21,4.7.52,13.59,1.27,17.73,1.21,6.67,7.8,11.75,14.35,12.65,12.25,1.67,44.17,1.26,56.95.13,22.46-1.98,23.53-37,1.87-39.95-7.08-.96-26.98,2.09-31.09-2.4v-.02ZM97.89,273.55c-80.38,9.14-95.75,161.54-12.54,185.98,26.56,7.8,61.6,2.84,78.19-21.33,9.16-13.34,10.65-34.6-7.99-39.87-25.97-7.34-21.39,23.85-43.95,25.92-53.61,4.93-51.78-115.21-1-110.97,25.55,2.13,19.63,32.21,42.72,29.75,18-1.91,22.27-19.51,15.96-34.45-11.09-26.24-44.62-38.09-71.4-35.04h0ZM578.86,279.51c-6.65,1.12-12.22,7.49-12.74,14.26l.45,156.56c.73,4.74,6.5,10.12,11.11,10.89,13.3,2.22,42.93-.03,56.21-3.69,92-25.34,84.92-170.16-13.39-178.13-9.68-.79-32.61-1.41-41.63.11h-.01ZM524.89,280.52c-8.31,1.02-14.77,7.41-16.53,15.49-2.61,34.19,2.73,71.85-.37,105.63-1.02,11.13-5.24,26.72-18.68,27.4-14.63.74-19.98-14.51-21.06-26.4-3.02-33.21,2.82-70.8-.09-103.91-1.91-21.75-34.52-23.61-39.6-2.52,4.15,51.54-23.01,167.46,56.07,173.04,85.89,6.06,59.33-122.46,63.42-173.42-2.61-10.43-12.62-16.61-23.17-15.31h0ZM340.91,282.56c-87.06,8.86-76.59,211.34,23.2,183.2,71.28-20.1,65.52-192.22-23.2-183.2Z"/>
  <path d="M610.83,320.48c4.24-1.24,11.19.09,15.5,1.08,43.51,10.07,41.85,87.4-1.2,98.22-7.22,1.81-17.84,4.14-19.03-5.99-3.11-26.5,2.39-58.91,0-86.04-.07-2.48,2.37-6.58,4.73-7.27h0Z"/>
  <path d="M295.86,120.52c14.24-3.68,18.58,16.44,20.76,26.74,1.37,6.45,4.75,19.9-.06,24.96-4.02,4.22-30.01,4.12-33.89,0s-2.12-11.15-1.42-16.31c1.11-8.1,5.73-33.09,14.61-35.38h0Z"/>
  <path d="M343.85,323.51c12.09-2.08,20.23,7.19,24.04,17.48,7.16,19.32,7.99,68.95-9.75,82.8-7.47,5.83-16.79,4.62-23.55-1.5-15.86-14.36-14.59-63.61-7.24-82.28,2.9-7.36,8.11-15.05,16.5-16.5h0Z"/>
</svg>