<?xml version="1.0" encoding="UTF-8"?>
<svg id="Layer_1" xmlns="http://www.w3.org/2000/svg" version="1.1" viewBox="0 0 372.88 250.47">
  <!-- Generator: Adobe Illustrator 30.0.0, SVG Export Plug-In . SVG Version: 2.1.1 Build 123)  -->
  <defs>
    <style>
      .st0, .st1 {
        fill: #4a4d67;
      }

      .st1 {
        stroke: #4a4d67;
        stroke-miterlimit: 10;
      }
    </style>
  </defs>
  <g>
    <path class="st1" d="M170.3,27.66c-1.92-9.72-20.59-5.34-17.45,5,3.46,11.44,23.91,15.46,28.34,30.44,5.47,18.48-13.71,24.59-28.38,22.71-5.18-.67-13.23-5.93-16.1-10.27-3.37-5.1-3.05-12.32.81-17.1,3.59-4.44,7.65-1.33,7.7,3.48.04,3.62-3.33,5.37-.11,9.25,4.27,5.14,16.87,7.1,21.52,1.37,6.64-8.21-6.57-15.02-11.88-19.06-8.98-6.82-17.06-17.07-13.02-29.11,6.3-18.8,42.1-17.82,37.68,7.46-1.12,6.39-7.17,5.55-9.1-4.16Z"/>
    <path class="st1" d="M199.5,28.6c.19-.15.38-.63.75-.93,3.83-3,12.42-.81,16.43,1.35,15.58,8.4,10.99,31.35,1.64,42.8-11.78,14.41-28.11,5.13-32.29-10.17-2.91-10.64.71-24.06,9.28-31.22,1.51-1.26,3.61-1.37,4.2-1.83ZM205.7,36.38c-.55,2.42-2.72,4.04-4.13,6.04-4.34,6.16-5.66,14.47-.99,20.87,3.83,5.26,9.22,3.84,12.25-1.32,2.66-4.54,4.79-12.6,3.66-17.75s-5.76-7.98-10.79-7.84Z"/>
  </g>
  <g>
    <path class="st0" d="M338.82,148.05c-6.72,9.66-18.81,27.6-32.73,20.52-15.24-7.75-22.65-37.67-25.1-53.33-1.11-7.08-1.9-13.66,5.38-17.75,4.43-2.49,10.25-.81,12.65,3.64,4.75,8.81,5.69,24.49,9.65,34.98.94,2.48,3.6,9.23,6.56,9.42,3.62.23,8.14-6.37,10.08-9.05,4.37-6.02,9.48-13.4,12.26-20.11,2.78-6.7,9.57-10.81,16.38-6.55,2.87,1.8,3.87,6.43,4.46,9.61,2.18,11.69,2.23,28.44,2.52,40.63.56,23.77.36,70.3-26.18,80.75-11.12,4.38-34.93,5.41-40.97-7.58-1.38-2.97-1.09-8.96,2.84-9.86,8.75-1.99,17.21,6.19,25.92,1.38,17.08-9.42,16.9-42.99,16.75-60.11-.05-5.53-.67-11.1-.47-16.59Z"/>
    <path class="st0" d="M159.9,108.45c6.13-1.84,13.78,4.2,14.59,10.2.06,13.05-1.03,26.21.48,39.2,1.04,8.94,5.59,20.49-.39,28.44-3.13,4.16-8.45,3.04-11.97,0-7.91-6.79-8.77-24.95-9.58-34.72-7.29,7.8-14.06,15.35-23.28,21.01-13.05,8-30.14,11.67-37.65-5.38-9.07-20.59,13.72-42.82,29.3-52.91,6.2-4.01,16.14-9.82,23-12.23,5.72-2.01,13.62.11,15.52,6.4ZM153.02,121.47l-19.12,10.46c-6.98,4.21-21.28,15.73-21.9,24.3-.35,4.82,5.49,1.38,7.73.18,11.86-6.36,21.28-16.98,28.92-27.86.53-.75,4.68-6.76,4.37-7.09Z"/>
    <path class="st0" d="M77.63,83.53c.65,7.47,1.35,14.91,1.71,22.4.83,17.19,2.26,34.42,3.09,51.64.28,5.73,1.29,22.19-.28,26.76-2,5.82-9.85,7.74-14.61,4.2-8.46-6.29-6.26-17.12-6.66-26.18-.76-17.32-3.02-34.65-4.11-51.98l-1.03-27.19-21.39.02c-7.45-1.36-22.16,2.15-21.37-9.78s16.15-9.94,24.14-9.75c8.52.21,17.45.69,25.98.02,1.08-.09,1.93-.71,3.08-.71,1.68,0,3.26.37,5.46.36,8.36-.05,16.67.31,24.98.7,5.33.25,10.65-.18,15.74,1.71,12.56,4.65,12.02,13.53-1.2,16.6-8.54,1.98-17.49,1.82-26.15,1.52-2.43-.08-5.07.36-7.36-.33Z"/>
    <path class="st0" d="M226,131.61c-1.27-1.21-2.28-3.29-2.7-5-1.5-6.16,1.35-12.42-8.64-9.69-4.33,1.18-12.06,4.99-8.9,10.48,2.96,5.15,17.44,13.06,22.86,18.18,12.21,11.52,13.97,26.52-.37,37.26-10,7.49-27.23,7.46-38.7,3.53-5.65-1.94-9.2-10.64-3.46-14.56,6.81-4.63,19.74,2.11,27.72-1.01,2.83-1.11,4.02-4.27,2.3-6.9-2.67-4.08-12-9.26-16.19-12.54-7.28-5.68-15.57-13.99-16.71-23.65-2.82-24.09,22.35-34.77,42.59-28.57,12.46,3.82,16.98,15.29,13.6,27.47-1.52,5.5-8.74,9.44-13.4,4.99Z"/>
    <path class="st0" d="M245.76,80.85l1.06-13.82c1.02-6.99,9.67-13.58,16.21-8.76,6.04,4.46,5.14,14.92,4.62,21.55,4.98-.47,13.31,1.29,13.02,7.7-.26,5.77-8.93,8.28-13.7,8.38.06,2.56-.09,5.14-.02,7.71.49,17.86,3.36,37.74,12.87,53.14,4.59,7.43,15.07,17.16,13.73,26.45-.84,5.85-7.58,6.95-12.41,5.41-4.27-1.37-10.03-7.51-12.98-10.96-18.65-21.76-22.7-52.25-23.08-80.04-6.39.65-13.84-7.24-10.54-13.44.83-1.55,3.55-3.31,5.24-3.31h5.99Z"/>
  </g>
  <g>
    <path class="st0" d="M11.63,66.39c-1.16-1.45-7.35-3.33-7.63-.72-.4,3.71,6.12.79,7.63.72Z"/>
    <path class="st0" d="M13.09,64.24c-1.87-1.64-4.05-7.74-6.77-7.48l-1.73.93c-.83.99-.72,2.84.14,3.79l8.35,2.77Z"/>
  </g>
  <g>
    <path class="st0" d="M234.35,40.51c1.75-2.36,11.42-5.74,12.03-1.63.88,5.85-9.64,1.64-12.03,1.63Z"/>
    <path class="st0" d="M231.89,37.2c2.86-2.72,5.92-12.51,10.23-12.28l2.79,1.36c1.38,1.51,1.32,4.46.01,6.01l-13.04,4.91Z"/>
  </g>
</svg>